<?xml version="1.0" encoding="UTF-8" standalone="no"?>
<!-- Created with Inkscape (http://www.inkscape.org/) -->

<svg
   xmlns:dc="http://purl.org/dc/elements/1.1/"
   xmlns:cc="http://creativecommons.org/ns#"
   xmlns:rdf="http://www.w3.org/1999/02/22-rdf-syntax-ns#"
   xmlns:svg="http://www.w3.org/2000/svg"
   xmlns="http://www.w3.org/2000/svg"
   xmlns:sodipodi="http://sodipodi.sourceforge.net/DTD/sodipodi-0.dtd"
   xmlns:inkscape="http://www.inkscape.org/namespaces/inkscape"
   width="512"
   height="512"
   viewBox="0 0 135.46666 135.46667"
   version="1.1"
   id="svg8"
   inkscape:version="0.92.4 5da689c313, 2019-01-14"
   sodipodi:docname="Icon.svg"
   inkscape:export-filename="/home/lars/Develop/toolws/public/images/icon-512.png"
   inkscape:export-xdpi="96.000008"
   inkscape:export-ydpi="96.000008">
  <defs
     id="defs2" />
  <sodipodi:namedview
     id="base"
     pagecolor="#ffffff"
     bordercolor="#666666"
     borderopacity="1.0"
     inkscape:pageopacity="0.0"
     inkscape:pageshadow="2"
     inkscape:zoom="0.7"
     inkscape:cx="166.59256"
     inkscape:cy="252.56576"
     inkscape:document-units="px"
     inkscape:current-layer="layer1"
     showgrid="false"
     units="px"
     inkscape:window-width="1280"
     inkscape:window-height="747"
     inkscape:window-x="0"
     inkscape:window-y="0"
     inkscape:window-maximized="1" />
  <metadata
     id="metadata5">
    <rdf:RDF>
      <cc:Work
         rdf:about="">
        <dc:format>image/svg+xml</dc:format>
        <dc:type
           rdf:resource="http://purl.org/dc/dcmitype/StillImage" />
        <dc:title></dc:title>
      </cc:Work>
    </rdf:RDF>
  </metadata>
  <g
     inkscape:label="Ebene 1"
     inkscape:groupmode="layer"
     id="layer1"
     transform="translate(0,-161.53331)">
    <path
       inkscape:connector-curvature="0"
       id="path3732"
       style="font-style:normal;font-variant:normal;font-weight:normal;font-stretch:normal;font-size:85.33333588px;line-height:1.25;font-family:sans-serif;-inkscape-font-specification:'sans-serif, Normal';font-variant-ligatures:normal;font-variant-caps:normal;font-variant-numeric:normal;font-feature-settings:normal;text-align:start;letter-spacing:0px;word-spacing:0px;writing-mode:lr-tb;text-anchor:start;fill:#000000;fill-opacity:1;stroke:none;stroke-width:0.43858439"
       d="M 1.4459067,209.04634 H 24.526411 v 3.10664 h -9.685406 v 24.17697 H 11.131313 V 212.15298 H 1.4459067 Z" />
    <path
       inkscape:connector-curvature="0"
       id="path3734"
       style="font-style:normal;font-variant:normal;font-weight:normal;font-stretch:normal;font-size:85.33333588px;line-height:1.25;font-family:sans-serif;-inkscape-font-specification:'sans-serif, Normal';font-variant-ligatures:normal;font-variant-caps:normal;font-variant-numeric:normal;font-feature-settings:normal;text-align:start;letter-spacing:0px;word-spacing:0px;writing-mode:lr-tb;text-anchor:start;fill:#000000;fill-opacity:1;stroke:none;stroke-width:0.43858439"
       d="m 26.869475,218.59805 q -2.704604,0 -4.276198,2.11982 -1.571594,2.10155 -1.571594,5.7747 0,3.67314 1.55332,5.79296 1.571594,2.10156 4.294472,2.10156 2.68633,0 4.257924,-2.11983 1.571594,-2.11983 1.571594,-5.77469 0,-3.6366 -1.571594,-5.75642 -1.571594,-2.1381 -4.257924,-2.1381 z m 0,-2.8508 q 4.385844,0 6.88943,2.8508 2.503585,2.8508 2.503585,7.89452 0,5.02544 -2.503585,7.89452 -2.503586,2.85079 -6.88943,2.85079 -4.404118,0 -6.907704,-2.85079 -2.485312,-2.86908 -2.485312,-7.89452 0,-5.04372 2.485312,-7.89452 2.503586,-2.8508 6.907704,-2.8508 z" />
    <path
       inkscape:connector-curvature="0"
       id="path3736"
       style="font-style:normal;font-variant:normal;font-weight:normal;font-stretch:normal;font-size:85.33333588px;line-height:1.25;font-family:sans-serif;-inkscape-font-specification:'sans-serif, Normal';font-variant-ligatures:normal;font-variant-caps:normal;font-variant-numeric:normal;font-feature-settings:normal;text-align:start;letter-spacing:0px;word-spacing:0px;writing-mode:lr-tb;text-anchor:start;fill:#000000;fill-opacity:1;stroke:none;stroke-width:0.43858439"
       d="m 47.499379,218.59804 q -2.704605,0 -4.276198,2.11982 -1.571592,2.10155 -1.571592,5.7747 0,3.67314 1.553317,5.79296 1.571597,2.10156 4.294473,2.10156 2.68633,0 4.257922,-2.11983 1.571597,-2.11983 1.571597,-5.77469 0,-3.6366 -1.571597,-5.75642 -1.571592,-2.1381 -4.257922,-2.1381 z m 0,-2.8508 q 4.385844,0 6.889428,2.8508 2.503589,2.8508 2.503589,7.89452 0,5.02544 -2.503589,7.89452 -2.503584,2.85079 -6.889428,2.85079 -4.40412,0 -6.907704,-2.85079 -2.485313,-2.86908 -2.485313,-7.89452 0,-5.04372 2.485313,-7.89452 2.503584,-2.8508 6.907704,-2.8508 z" />
    <path
       inkscape:connector-curvature="0"
       id="path3738"
       style="font-style:normal;font-variant:normal;font-weight:normal;font-stretch:normal;font-size:85.33333588px;line-height:1.25;font-family:sans-serif;-inkscape-font-specification:'sans-serif, Normal';font-variant-ligatures:normal;font-variant-caps:normal;font-variant-numeric:normal;font-feature-settings:normal;text-align:start;letter-spacing:0px;word-spacing:0px;writing-mode:lr-tb;text-anchor:start;fill:#000000;fill-opacity:1;stroke:none;stroke-width:0.43858439"
       d="m 132.54977,219.11156 v 3.17974 q -1.4254,-0.73098 -2.96045,-1.09646 -1.53504,-0.36549 -3.17974,-0.36549 -2.50358,0 -3.76451,0.76752 -1.24265,0.76753 -1.24265,2.30257 0,1.16956 0.89544,1.84571 0.89544,0.65788 3.60005,1.26093 l 1.15128,0.25584 q 3.58177,0.76752 5.08027,2.17465 1.51677,1.38885 1.51677,3.89244 0,2.85079 -2.26602,4.51376 -2.24774,1.66296 -6.195,1.66296 -1.6447,0 -3.43558,-0.32893 -1.77261,-0.31067 -3.74624,-0.95027 v -3.47213 q 1.86398,0.96854 3.67314,1.46195 1.80916,0.47514 3.58177,0.47514 2.37567,0 3.65487,-0.80408 1.27921,-0.82234 1.27921,-2.30257 0,-1.37057 -0.932,-2.10155 -0.91371,-0.73097 -4.03863,-1.40712 l -1.16956,-0.27412 q -3.12491,-0.65787 -4.51376,-2.01017 -1.38885,-1.37058 -1.38885,-3.74625 0,-2.88734 2.04673,-4.45894 2.04672,-1.57159 5.81124,-1.57159 1.86399,0 3.50868,0.27411 1.64469,0.27412 3.03354,0.82235 z" />
    <path
       inkscape:connector-curvature="0"
       id="path3725"
       style="font-style:normal;font-variant:normal;font-weight:normal;font-stretch:normal;font-size:75.31912231px;line-height:1.25;font-family:TSCu_Comic;-inkscape-font-specification:'TSCu_Comic, Normal';font-variant-ligatures:normal;font-variant-caps:normal;font-variant-numeric:normal;font-feature-settings:normal;text-align:center;letter-spacing:0px;word-spacing:0px;writing-mode:lr-tb;text-anchor:middle;fill:#000000;fill-opacity:1;stroke:none;stroke-width:0.56489336"
       d="m 94.75691,248.15 q 0,2.24833 -2.248332,2.84789 -16.937434,4.34677 -24.656707,4.34677 -7.044774,0 -10.04255,-1.27405 -2.997776,-1.27406 -2.997776,-4.42172 0,-8.46872 3.072721,-21.20927 3.147665,-13.26516 6.894885,-21.13432 0.224833,-0.89933 0.974277,-1.349 0.824388,-0.44966 1.87361,-0.59955 1.124166,0.0749 2.023498,0.6745 0.6745,0.6745 0.6745,2.02349 l -2.473165,7.4195 q -3.297554,10.04255 -4.571608,14.98888 -2.54811,9.96761 -2.54811,16.26294 0,1.87361 0.899333,2.39822 0.899333,0.52461 4.496664,0.52461 4.646552,0 11.466493,-1.42395 l 14.31438,-2.84788 q 2.847887,0 2.847887,2.77294 z" />
    <path
       inkscape:connector-curvature="0"
       id="path3727"
       style="font-style:normal;font-variant:normal;font-weight:normal;font-stretch:normal;font-size:75.31912231px;line-height:1.25;font-family:TSCu_Comic;-inkscape-font-specification:'TSCu_Comic, Normal';font-variant-ligatures:normal;font-variant-caps:normal;font-variant-numeric:normal;font-feature-settings:normal;text-align:center;letter-spacing:0px;word-spacing:0px;writing-mode:lr-tb;text-anchor:middle;fill:#000000;fill-opacity:1;stroke:none;stroke-width:0.56489336"
       d="m 132.64331,190.81122 q 0,0.37472 -2.92283,5.69577 -4.57161,8.16894 -6.81994,12.96538 -4.42172,9.14322 -7.56939,18.21149 -2.09844,5.99555 -2.92283,7.64433 -1.349,2.92283 -2.99777,2.92283 -1.87361,0 -4.7215,-4.27183 -1.87361,-2.77294 -3.22261,-5.92061 -2.847881,-6.14544 -5.321047,-15.28865 -3.147664,5.02127 -10.117494,21.05937 -2.098443,4.7215 -3.597331,4.7215 -1.87361,0 -5.171164,-7.71927 -2.997776,-6.96983 -5.395996,-17.46205 -0.224834,-0.97428 -0.899333,-4.7215 -0.899333,-5.39599 -1.199111,-10.79199 -0.149888,-2.92283 -0.149888,-6.59511 0,-1.27405 0.974277,-2.02349 0.974277,-0.82439 2.248332,-0.82439 1.124166,0 1.87361,0.59955 0.674499,0.6745 0.674499,1.94856 0,12.96538 2.772943,24.50682 1.87361,7.49444 4.271831,12.06604 3.222609,-8.76849 7.269607,-15.21371 1.723721,-2.698 2.922832,-4.19689 1.348999,-1.64877 3.07272,-2.99777 2.323276,-1.79867 3.297554,-1.79867 0.974273,0 2.398219,5.54589 l 2.92283,11.39155 q 1.64877,6.44522 4.49666,8.76849 3.22261,-9.81771 5.84566,-16.11304 2.32328,-5.32106 6.0705,-12.59066 2.24833,-4.49667 6.29533,-10.86694 0.82439,-1.19911 2.47317,-1.19911 1.12416,0 2.09844,0.74944 1.04922,0.6745 1.04922,1.79867 z" />
  </g>
</svg>
